<svg width="75" height="23" viewBox="0 0 75 23" fill="none" xmlns="http://www.w3.org/2000/svg">
<mask id="mask0" mask-type="alpha" maskUnits="userSpaceOnUse" x="0" y="0" width="23" height="23">
<path fill-rule="evenodd" clip-rule="evenodd" d="M0 11.5C0 17.8513 5.14869 23 11.5 23C17.8513 23 23 17.8513 23 11.5C23 5.14871 17.8513 0 11.5 0C5.14869 0 0 5.14871 0 11.5Z" fill="white"/>
</mask>
<g mask="url(#mask0)">
<path fill-rule="evenodd" clip-rule="evenodd" d="M0 11.5C0 17.8513 5.14869 23 11.5 23C17.8513 23 23 17.8513 23 11.5C23 5.14871 17.8513 0 11.5 0C5.14869 0 0 5.14871 0 11.5Z" fill="url(#paint0_radial)"/>
<path fill-rule="evenodd" clip-rule="evenodd" d="M19.9048 -0.919922H2.88477V3.68009H19.9048V-0.919922ZM2.88477 23.92H19.9048V19.32H2.88477V23.92ZM-1.25586 14.4904H24.2741V8.51038H-1.25586V14.4904Z" fill="url(#paint1_linear)"/>
</g>
<path fill-rule="evenodd" clip-rule="evenodd" d="M57.3232 6.29186C57.3232 6.80067 57.7084 7.19994 58.2009 7.19994C58.6907 7.19994 59.0773 6.80067 59.0773 6.29186C59.0773 5.78242 58.6907 5.38379 58.2009 5.38379C57.7084 5.38379 57.3232 5.78242 57.3232 6.29186Z" fill="#333333"/>
<path fill-rule="evenodd" clip-rule="evenodd" d="M61.9235 9.26927L61.8666 9.30485L61.754 8.97674C61.7163 8.86708 61.6165 8.79287 61.5037 8.79287H60.938C60.7916 8.79287 60.6729 8.91676 60.6729 9.06913V16.5745C60.6729 16.7257 60.7916 16.8486 60.938 16.8486H61.9534C62.1018 16.8486 62.2184 16.7257 62.2184 16.5745V10.5001L62.2479 10.487C62.6646 10.263 63.0886 10.1235 63.9124 10.1235C64.8988 10.1235 65.0968 10.5066 65.0968 11.1249V16.5745C65.0968 16.7257 65.216 16.8486 65.3626 16.8486H66.3771C66.5228 16.8486 66.6431 16.7257 66.6431 16.5745V11.17C66.6431 9.51681 65.6987 8.64355 63.9124 8.64355C63.2491 8.64355 62.58 8.85475 61.9235 9.26927Z" fill="#333333"/>
<path fill-rule="evenodd" clip-rule="evenodd" d="M58.9568 9.06908C58.9568 8.91634 58.8373 8.79346 58.6914 8.79346H57.7053C57.5584 8.79346 57.4385 8.91634 57.4385 9.06908V16.5735C57.4385 16.7257 57.5584 16.8482 57.7053 16.8482H58.6896C58.8373 16.8482 58.9568 16.7257 58.9568 16.5735V9.06908Z" fill="#333333"/>
<path fill-rule="evenodd" clip-rule="evenodd" d="M55.5841 5.31613C55.5841 5.16491 55.4658 5.04102 55.3187 5.04102H54.3337C54.1857 5.04102 54.0674 5.16491 54.0674 5.31613V16.5737C54.0674 16.7263 54.1857 16.8488 54.3332 16.8488H55.3187C55.4658 16.8488 55.5841 16.7263 55.5841 16.5737V5.31613Z" fill="#333333"/>
<path fill-rule="evenodd" clip-rule="evenodd" d="M40.3848 12.1127C40.4598 11.0796 40.7232 10.1232 42.1254 10.1232C43.333 10.1232 43.566 10.7945 43.5943 12.1158L43.5951 12.1701H40.3803L40.3848 12.1127ZM38.8145 12.8217C38.8145 13.8541 38.8145 16.9997 42.1249 16.9997C43.1188 16.9997 43.7722 16.9383 44.627 16.6529C44.7268 16.6216 44.7836 16.513 44.7836 16.4033V15.5594C44.7836 15.4644 44.7394 15.3785 44.6643 15.3294C44.5909 15.2783 44.5035 15.2862 44.4152 15.3053C43.6717 15.4668 43.0821 15.5186 42.1249 15.5186C40.7477 15.5186 40.4773 14.6149 40.3897 13.6362L40.3843 13.5767H44.8835C45.0278 13.5767 45.1466 13.4543 45.1466 13.3027V12.8217C45.1466 10.8011 44.9129 8.64404 42.1249 8.64404C38.8145 8.64404 38.8145 11.7894 38.8145 12.8217Z" fill="#333333"/>
<path fill-rule="evenodd" clip-rule="evenodd" d="M47.9106 12.1127C47.9861 11.0796 48.2492 10.1232 49.6523 10.1232C50.8571 10.1232 51.0921 10.7945 51.1193 12.1158L51.12 12.1701H47.9058L47.9106 12.1127ZM46.3418 12.8217C46.3418 13.8541 46.3418 16.9997 49.6525 16.9997C50.6462 16.9997 51.2992 16.9383 52.1546 16.6529C52.2533 16.6216 52.3114 16.513 52.3114 16.4033V15.5594C52.3114 15.4644 52.2649 15.3785 52.1909 15.3294C52.1165 15.2783 52.0284 15.2862 51.9419 15.3053C51.199 15.4668 50.6081 15.5186 49.6525 15.5186C48.2737 15.5186 48.0035 14.6149 47.916 13.6362L47.9108 13.5767H52.4083C52.5541 13.5767 52.6722 13.4543 52.6722 13.3027V12.8217C52.6722 10.8011 52.4399 8.64404 49.6525 8.64404C46.3418 8.64404 46.3418 11.7894 46.3418 12.8217Z" fill="#333333"/>
<path fill-rule="evenodd" clip-rule="evenodd" d="M69.549 12.1127C69.624 11.0796 69.8871 10.1232 71.2906 10.1232C72.4965 10.1232 72.7301 10.7945 72.7564 12.1158L72.7575 12.1701H69.5441L69.549 12.1127ZM67.9805 12.8217C67.9805 13.8541 67.9805 16.9997 71.2913 16.9997C72.2834 16.9997 72.9364 16.9383 73.7919 16.6529C73.891 16.6216 73.9493 16.513 73.9493 16.4033V15.5594C73.9493 15.4644 73.9044 15.3785 73.829 15.3294C73.7558 15.2783 73.6674 15.2862 73.5802 15.3053C72.8381 15.4668 72.247 15.5186 71.2913 15.5186C69.9127 15.5186 69.6422 14.6149 69.555 13.6362L69.5481 13.5767H74.047C74.1925 13.5767 74.3112 13.4543 74.3112 13.3027V12.8217C74.3112 10.8011 74.0793 8.64404 71.2913 8.64404C67.9797 8.64404 67.9805 11.7894 67.9805 12.8217Z" fill="#333333"/>
<path fill-rule="evenodd" clip-rule="evenodd" d="M33.9106 11.5054C35.4773 11.5054 36.0324 11.998 36.0324 13.3868C36.0324 14.3177 35.7764 15.2689 33.8812 15.2689H31.5989V11.5054H33.9106ZM33.794 6.58145C35.4427 6.58145 35.6702 7.39167 35.6702 8.26849C35.6702 9.38217 35.0949 9.92427 33.9106 9.92427H31.5989V6.58145H33.794ZM30.2846 5C30.1269 5 30 5.13165 30 5.29532V16.5542C30 16.7179 30.1269 16.8503 30.2846 16.8503H33.8235C36.3554 16.8503 37.75 15.6199 37.75 13.3869C37.75 12.1707 37.1841 11.1355 36.2357 10.6153C36.2357 10.6153 36.2124 10.603 36.1908 10.5898C36.2104 10.5753 36.233 10.5586 36.233 10.5586C36.9652 10.0066 37.3865 9.17198 37.3865 8.26848C37.3865 7.0473 36.9104 5 33.721 5H30.2846Z" fill="#333333"/>
<defs>
<radialGradient id="paint0_radial" cx="0" cy="0" r="1" gradientUnits="userSpaceOnUse" gradientTransform="translate(14.8705 9.25443) rotate(103.777) scale(14.1528 14.1544)">
<stop stop-color="#FBE993"/>
<stop offset="0.426228" stop-color="#FDE622"/>
<stop offset="1" stop-color="#F5B732"/>
</radialGradient>
<linearGradient id="paint1_linear" x1="-0.033935" y1="11.1195" x2="23.0684" y2="11.1195" gradientUnits="userSpaceOnUse">
<stop stop-color="#2B2B2B"/>
<stop offset="0.152836" stop-color="#131313"/>
<stop offset="0.745954" stop-color="#131313"/>
<stop offset="1" stop-color="#1B1B1B"/>
</linearGradient>
</defs>
</svg>
